<svg width="19" height="19" viewBox="0 0 19 19" fill="none" xmlns="http://www.w3.org/2000/svg">
<path id="arrow" d="M8.89001 18.7C8.80384 18.6277 8.73284 18.539 8.68112 18.4391C8.62941 18.3392 8.59798 18.23 8.58868 18.1178C8.57939 18.0057 8.5924 17.8929 8.62695 17.7858C8.6615 17.6787 8.71693 17.5796 8.79001 17.4941L15.438 10.9371H1.45001C1.19823 10.9368 0.956843 10.8366 0.7789 10.6585C0.600957 10.4804 0.501007 10.2389 0.501007 9.9871V9.97709C0.501007 9.72531 0.600957 9.48371 0.7789 9.30558C0.956843 9.12745 1.19823 9.02728 1.45001 9.02702H15.375L8.798 2.54203C8.72258 2.45393 8.6653 2.35181 8.62949 2.24149C8.59367 2.13118 8.58003 2.01482 8.58932 1.89921C8.59862 1.7836 8.63068 1.67097 8.68365 1.56779C8.73663 1.46461 8.80948 1.37294 8.89801 1.29801C9.05406 1.12085 9.27289 1.01138 9.50824 0.992715C9.74359 0.974051 9.97697 1.04769 10.159 1.19804L18.28 9.20609C18.4307 9.38197 18.5058 9.61034 18.4887 9.84135C18.4717 10.0724 18.3639 10.2872 18.189 10.439C18.2019 10.5463 18.1907 10.6553 18.1561 10.7577C18.1215 10.8602 18.0644 10.9535 17.989 11.031L10.115 18.7951C9.97436 18.9283 9.78661 19.0002 9.59299 18.995C9.32911 18.9923 9.07681 18.8864 8.89001 18.7Z" fill="#D0AD37"/>
</svg>
