<svg width="11" height="7" viewBox="0 0 11 7" fill="none" xmlns="http://www.w3.org/2000/svg">
<path id="arrow" d="M5.30896 6.71002L1.25598 2.61902C1.07698 2.43735 0.976685 2.19254 0.976685 1.9375C0.976685 1.68246 1.07698 1.43765 1.25598 1.25598C1.34428 1.16636 1.4495 1.09521 1.56555 1.04663C1.6816 0.998056 1.8062 0.973022 1.93201 0.973022C2.05782 0.973022 2.18241 0.998056 2.29846 1.04663C2.41451 1.09521 2.51973 1.16636 2.60803 1.25598L5.98401 4.66498L9.36206 1.25598C9.45027 1.16639 9.55542 1.09525 9.67139 1.04669C9.78736 0.99813 9.91175 0.973145 10.0375 0.973145C10.1632 0.973145 10.2877 0.99813 10.4037 1.04669C10.5197 1.09525 10.6248 1.16639 10.713 1.25598C10.892 1.43765 10.9923 1.68246 10.9923 1.9375C10.9923 2.19254 10.892 2.43735 10.713 2.61902L6.65906 6.71002C6.57071 6.79937 6.46544 6.87029 6.34949 6.9187C6.23354 6.96711 6.10917 6.992 5.98352 6.992C5.85787 6.992 5.7335 6.96711 5.61755 6.9187C5.5016 6.87029 5.39633 6.79937 5.30798 6.71002H5.30896Z" fill="#677585"/>
</svg>
