<svg width="33" height="33" viewBox="0 0 33 33" fill="none" xmlns="http://www.w3.org/2000/svg">
<g id="Group 32233">
<g id="Group 32232">
<path id="Path 17530" d="M18.011 5.98099C18.011 2.28765 16.2847 0.440979 12.832 0.440979H5.26299C1.80965 0.440979 0.0833332 2.28765 0.0839998 5.98099V32.781H4.40898V20.934L18.009 20.943L18.011 5.98099ZM13.687 17.015H4.40797V6.25497C4.37223 5.99881 4.39643 5.73785 4.47862 5.49261C4.56081 5.24738 4.69878 5.02453 4.88167 4.84164C5.06456 4.65875 5.28737 4.52079 5.53261 4.4386C5.77785 4.35641 6.03883 4.33224 6.295 4.36798H11.795C12.0512 4.33224 12.3121 4.35641 12.5574 4.4386C12.8026 4.52079 13.0254 4.65875 13.2083 4.84164C13.3912 5.02453 13.5292 5.24738 13.6113 5.49261C13.6935 5.73785 13.7177 5.99881 13.682 6.25497L13.687 17.015Z" fill="#FF5E00"/>
<path id="Path 17531" d="M0.573987 32.288V5.97801C0.464743 4.60359 0.879921 3.23877 1.736 2.158C2.2062 1.71957 2.76254 1.38388 3.36961 1.17228C3.97668 0.960685 4.62116 0.877827 5.26201 0.928994H12.831C13.4719 0.877827 14.1163 0.960685 14.7234 1.17228C15.3304 1.38388 15.8868 1.71957 16.357 2.158C17.2134 3.23863 17.629 4.60346 17.52 5.97801V20.449L3.92 20.44V32.286L0.573987 32.288ZM6.29799 3.869C5.97603 3.83172 5.64982 3.86774 5.34373 3.97431C5.03765 4.08089 4.75962 4.2553 4.53044 4.48448C4.30126 4.71365 4.12688 4.99165 4.02031 5.29774C3.91373 5.60382 3.87772 5.93007 3.91499 6.25202V17.508H14.178V6.249C14.2153 5.92704 14.1793 5.60083 14.0727 5.29475C13.9661 4.98866 13.7917 4.71063 13.5625 4.48145C13.3334 4.25228 13.0553 4.0779 12.7492 3.97132C12.4432 3.86475 12.117 3.82873 11.795 3.86601L6.29799 3.869Z" fill="#FF5E00"/>
<path id="Path 17532" d="M28.053 0.440979V26.741C28.053 28.1523 27.4676 28.8577 26.297 28.857H19.924C18.666 28.857 18.037 28.1516 18.037 26.741L18.031 22.478H13.707L13.713 26.605C13.713 30.719 15.4393 32.776 18.892 32.776H27.16C30.6427 32.776 32.384 30.734 32.384 26.65V0.440979H28.053Z" fill="url(#paint0_linear_1_176)"/>
<path id="Path 17533" d="M18.885 32.288C18.2361 32.3409 17.5837 32.2454 16.9772 32.0085C16.3708 31.7717 15.8262 31.3997 15.385 30.921C14.5043 29.6629 14.0873 28.1382 14.205 26.607L14.2 22.972H17.542L17.547 26.747C17.547 28.428 18.394 29.353 19.93 29.353H26.303C27.142 29.353 28.55 29.014 28.55 26.747V0.934998H31.891V26.656C32.0084 28.1764 31.5875 29.6896 30.702 30.931C30.2515 31.4098 29.6988 31.7807 29.0849 32.016C28.4711 32.2513 27.812 32.345 27.157 32.29L18.885 32.288Z" fill="url(#paint1_linear_1_176)"/>
</g>
</g>
<defs>
<linearGradient id="paint0_linear_1_176" x1="42.7684" y1="-6.41404" x2="-0.515987" y2="7.08346" gradientUnits="userSpaceOnUse">
<stop/>
<stop offset="0.5"/>
<stop offset="1"/>
</linearGradient>
<linearGradient id="paint1_linear_1_176" x1="41.7653" y1="-5.71551" x2="0.530024" y2="6.8627" gradientUnits="userSpaceOnUse">
<stop/>
<stop offset="0.5"/>
<stop offset="1"/>
</linearGradient>
</defs>
</svg>
