<svg width="90" height="15" viewBox="0 0 90 15" fill="none" xmlns="http://www.w3.org/2000/svg">
<g id="Group 35815">
<g id="Group 61">
<g id="Group 67">
<g id="Group 60">
<g id="Group 66">
<g id="Group 65">
<path id="Oval" d="M7.5 12.5C10.2614 12.5 12.5 10.2614 12.5 7.5C12.5 4.73858 10.2614 2.5 7.5 2.5C4.73858 2.5 2.5 4.73858 2.5 7.5C2.5 10.2614 4.73858 12.5 7.5 12.5Z" fill="black"/>
<path id="Oval_2" d="M7.5 14C11.0899 14 14 11.0899 14 7.5C14 3.91015 11.0899 1 7.5 1C3.91015 1 1 3.91015 1 7.5C1 11.0899 3.91015 14 7.5 14Z" stroke="black" stroke-miterlimit="10"/>
</g>
<path id="Oval_3" d="M27.5 13C30.5376 13 33 10.7614 33 8C33 5.23858 30.5376 3 27.5 3C24.4624 3 22 5.23858 22 8C22 10.7614 24.4624 13 27.5 13Z" fill="#E61800"/>
<path id="Oval_4" d="M46.5 13C49.5376 13 52 10.7614 52 8C52 5.23858 49.5376 3 46.5 3C43.4624 3 41 5.23858 41 8C41 10.7614 43.4624 13 46.5 13Z" fill="#E67100"/>
<path id="Oval_5" d="M65.5 13C68.5376 13 71 10.7614 71 8C71 5.23858 68.5376 3 65.5 3C62.4624 3 60 5.23858 60 8C60 10.7614 62.4624 13 65.5 13Z" fill="#E6C400"/>
<path id="Oval_6" d="M84.5 13C87.5376 13 90 10.7614 90 8C90 5.23858 87.5376 3 84.5 3C81.4624 3 79 5.23858 79 8C79 10.7614 81.4624 13 84.5 13Z" fill="#70B200"/>
</g>
</g>
</g>
</g>
</g>
</svg>
