<svg width="20" height="21" viewBox="0 0 20 21" fill="none" xmlns="http://www.w3.org/2000/svg">
<path id="icon" d="M11.858 19.3831C11.8582 19.0635 11.9531 18.751 12.1308 18.4854C12.3085 18.2197 12.5609 18.0128 12.8562 17.8906C13.1515 17.7685 13.4764 17.7366 13.7899 17.7991C14.1033 17.8615 14.3911 18.0157 14.617 18.2417C14.8429 18.4677 14.9967 18.7556 15.059 19.0691C15.1213 19.3825 15.0892 19.7075 14.9669 20.0027C14.8445 20.2979 14.6374 20.5503 14.3717 20.7278C14.1059 20.9053 13.7935 21 13.474 21C13.0454 20.9992 12.6347 20.8285 12.3318 20.5254C12.0289 20.2223 11.8585 19.8116 11.858 19.3831ZM5.39398 19.3831C5.39418 19.0634 5.48914 18.751 5.66687 18.4854C5.8446 18.2197 6.09713 18.0128 6.39249 17.8906C6.68785 17.7685 7.01277 17.7368 7.3262 17.7993C7.63964 17.8619 7.92749 18.0158 8.15335 18.2419C8.37921 18.4681 8.53296 18.7563 8.59512 19.0698C8.65728 19.3833 8.62506 19.7082 8.50256 20.0034C8.38007 20.2986 8.17281 20.5509 7.90695 20.7283C7.64109 20.9057 7.32859 21.0002 7.00897 21C6.58054 20.9992 6.16991 20.8285 5.86716 20.5254C5.5644 20.2223 5.39425 19.8115 5.39398 19.3831ZM6.47098 15.6089C6.1855 15.6084 5.91185 15.4948 5.70999 15.293C5.50813 15.0911 5.39451 14.8175 5.39398 14.532C5.39555 14.4939 5.40227 14.4563 5.41397 14.42C5.41897 14.398 5.42596 14.377 5.42896 14.354L3.32297 5.90698H2.69998V5.74097C2.53897 5.84475 2.35248 5.9022 2.16098 5.90698H1.08398C0.798081 5.90698 0.523881 5.79347 0.321716 5.59131C0.119552 5.38914 0.00598145 5.11488 0.00598145 4.82898C0.00598145 4.54308 0.119552 4.26894 0.321716 4.06677C0.523881 3.86461 0.798081 3.75098 1.08398 3.75098H2.16098C2.35258 3.75514 2.53924 3.81264 2.69998 3.91699V3.75098H8.66296C8.64096 3.96598 8.62997 4.18799 8.62997 4.41199V5C8.63006 5.30313 8.65145 5.60588 8.69397 5.90601H5.44998L6.52496 10.219H11.317C12.4023 10.9969 13.7047 11.4139 15.04 11.411H15.161L15.011 11.837H14.937C14.8549 11.9974 14.731 12.1325 14.5783 12.2283C14.4257 12.324 14.2501 12.3768 14.07 12.381H7.06198L7.33096 13.458H14.013C14.2989 13.458 14.5731 13.5715 14.7752 13.7737C14.9774 13.9758 15.091 14.2501 15.091 14.536C15.091 14.8219 14.9774 15.0962 14.7752 15.2983C14.5731 15.5005 14.2989 15.614 14.013 15.614L6.47098 15.6089ZM15.29 8.53101C15.1704 8.53101 15.052 8.50746 14.9415 8.46167C14.831 8.41588 14.7307 8.34877 14.6461 8.26416C14.5616 8.17955 14.4946 8.07903 14.4489 7.96851C14.4033 7.85798 14.3798 7.73958 14.38 7.62V5.66101H12.41C12.2905 5.66101 12.1721 5.63741 12.0617 5.59167C11.9513 5.54594 11.851 5.47891 11.7665 5.39441C11.682 5.30991 11.615 5.20965 11.5692 5.09924C11.5235 4.98884 11.5 4.87048 11.5 4.75098V4.66101C11.4998 4.54147 11.5233 4.42309 11.569 4.31262C11.6147 4.20216 11.6817 4.10174 11.7662 4.01721C11.8507 3.93268 11.9511 3.86563 12.0616 3.81995C12.1721 3.77426 12.2904 3.75084 12.41 3.75098H14.38V1.78101C14.3798 1.66142 14.4033 1.54302 14.4489 1.4325C14.4946 1.32197 14.5616 1.22145 14.6461 1.13684C14.7307 1.05223 14.831 0.985125 14.9415 0.939331C15.052 0.893537 15.1704 0.869995 15.29 0.869995H15.38C15.6214 0.87026 15.8529 0.96639 16.0235 1.13721C16.1941 1.30802 16.29 1.53957 16.29 1.78101V3.75098H18.25C18.4913 3.75098 18.7228 3.84692 18.8934 4.01758C19.0641 4.18824 19.16 4.41966 19.16 4.66101V4.75098C19.16 4.99232 19.0641 5.22375 18.8934 5.39441C18.7228 5.56507 18.4913 5.66101 18.25 5.66101H16.29V7.62C16.29 7.86143 16.1941 8.09298 16.0235 8.26379C15.8529 8.43461 15.6214 8.53074 15.38 8.53101H15.29Z" fill="#677585"/>
</svg>
