<svg width="18" height="10" viewBox="0 0 18 10" fill="none" xmlns="http://www.w3.org/2000/svg">
<path id="sidelist" d="M1 10C0.734784 10 0.480444 9.89463 0.292908 9.70709C0.105371 9.51956 0 9.26522 0 9C0 8.73478 0.105371 8.48044 0.292908 8.29291C0.480444 8.10537 0.734784 8 1 8H11C11.2652 8 11.5196 8.10537 11.7071 8.29291C11.8946 8.48044 12 8.73478 12 9C12 9.26522 11.8946 9.51956 11.7071 9.70709C11.5196 9.89463 11.2652 10 11 10H1ZM1 2C0.734784 2 0.480444 1.89463 0.292908 1.70709C0.105371 1.51956 0 1.26522 0 1C0 0.734784 0.105371 0.480444 0.292908 0.292908C0.480444 0.105371 0.734784 0 1 0H17C17.2652 0 17.5196 0.105371 17.7071 0.292908C17.8946 0.480444 18 0.734784 18 1C18 1.26522 17.8946 1.51956 17.7071 1.70709C17.5196 1.89463 17.2652 2 17 2H1Z" fill="#677585"/>
</svg>
